# xmcd
#
# Track frame offsets:
#	150
#	10842
#	26990
#	39217
#	53335
#	67410
#	78155
#	89372
#	101067
#	109797
#	120512
#	134632
#	143565
#	151437
#	164102
#	179560
#	193417
#	206197
#	219400
#	231405
#	244545
#	253515
#	263682
#	276637
#	286812
#	301117
#	308520
#	316567
#	328725
#	336727
#
# Disc length: 4598 seconds
#
# Revision: 3
# Processed by: cddbd v1.5.2PL0 Copyright (c) Steve Scherf et al.
# Submitted via: audiograbber 1.83.01
#
DISCID=bf11f41e
DTITLE=Johnny Horton - Johnny Horton 1956-1960  Vol. 3
DYEAR=1991
DGENRE=Laut.FM
TTITLE0=Ole Slew Foot  
TTITLE1=Miss Marcy  
TTITLE2=Sleepy Eyed John  
TTITLE3=The Mansion You Stole  
TTITLE4=They'll Never Take Her Love From Me  
TTITLE5=The Sinking Of The Reuben James  
TTITLE6=Jim Bridger  
TTITLE7=The Battle Of Bull Run  
TTITLE8=Snow-Shoe Thompson  
TTITLE9=John Paul Jones  
TTITLE10=Comanche (The Brave Horse) 
TTITLE11=Young Abe Lincoln  
TTITLE12=O'Leary's Cow  
TTITLE13=Johnny Freedom  
TTITLE14=Go North  
TTITLE15=North To Alaska  1991
TTITLE16=North To Alaska  1960
TTITLE17=I Just Don't Like This Kind Of Livin'
TTITLE18=Rock Island Line  
TTITLE19=Hank And Joe And Me  
TTITLE20=The Golden Rocket  
TTITLE21=A-Sleeping At The Foot Of The Bed  
TTITLE22=I Just Don't Like This Kind Of Livin'  
TTITLE23=Old Blind Barnabas  
TTITLE24=Evil Hearted Me  
TTITLE25=Hot In The Sugarcane Field  
TTITLE26=You Don't Move Me Baby Anymore  
TTITLE27=The Gosh-Darn Wheel 
TTITLE28=Broken Hearted Gypsy  
TTITLE29=The Church By The Side Of The Road  
EXTD=
EXTT0=
EXTT1=
EXTT2=
EXTT3=
EXTT4=
EXTT5=
EXTT6=
EXTT7=
EXTT8=
EXTT9=
EXTT10=
EXTT11=
EXTT12=
EXTT13=
EXTT14=
EXTT15=
EXTT16=
EXTT17=
EXTT18=
EXTT19=
EXTT20=
EXTT21=
EXTT22=
EXTT23=
EXTT24=
EXTT25=
EXTT26=
EXTT27=
EXTT28=
EXTT29=
PLAYORDER=
